<?xml version="1.0" standalone="no"?>
<!DOCTYPE svg PUBLIC "-//W3C//DTD SVG 20010904//EN"
 "http://www.w3.org/TR/2001/REC-SVG-20010904/DTD/svg10.dtd">
<svg version="1.0" xmlns="http://www.w3.org/2000/svg"
 width="260.000000pt" height="260.000000pt" viewBox="0 0 260.000000 260.000000"
 preserveAspectRatio="xMidYMid meet">
<metadata>
Created by potrace 1.11, written by Peter Selinger 2001-2013
</metadata>
<g transform="translate(0.000000,260.000000) scale(0.100000,-0.100000)"
fill="#000000" stroke="none">
<path d="M1365 2013 c-10 -25 -34 -180 -35 -225 0 -62 57 -76 78 -20 20 53 35
218 23 241 -14 26 -56 28 -66 4z"/>
<path d="M1021 1862 c-13 -25 16 -120 42 -136 45 -28 69 50 36 119 -18 37 -62
47 -78 17z"/>
<path d="M1697 1793 c-53 -83 -68 -122 -57 -143 6 -11 21 -20 35 -20 26 0 44
22 89 106 23 43 26 55 17 73 -19 34 -57 27 -84 -16z"/>
<path d="M666 1804 c-24 -23 -20 -37 28 -101 80 -106 107 -123 136 -88 19 23
5 54 -60 133 -63 75 -78 83 -104 56z"/>
<path d="M1101 1645 c-137 -44 -257 -147 -320 -275 -43 -86 -56 -146 -55 -255
1 -86 4 -108 28 -159 38 -84 85 -137 154 -174 80 -43 176 -45 252 -7 95 48
172 157 190 270 6 37 20 68 44 100 34 44 36 50 36 126 0 76 -1 79 -25 85 -21
5 -25 12 -25 44 0 38 -21 67 -40 55 -5 -3 -10 -21 -10 -38 0 -41 -13 -60 -36
-55 -14 2 -20 13 -22 40 -3 38 -24 64 -42 53 -5 -3 -10 -24 -10 -46 0 -35 -3
-41 -30 -50 -29 -11 -30 -12 -30 -80 0 -73 13 -110 49 -143 57 -52 -17 -219
-112 -255 -70 -27 -130 -8 -190 58 -146 161 -40 479 198 597 63 31 86 37 163
42 146 8 244 -25 343 -116 102 -94 149 -202 149 -345 0 -89 -27 -182 -67 -236
l-26 -34 -126 6 c-70 3 -132 2 -140 -2 -7 -5 -11 -17 -9 -27 3 -18 22 -20 258
-31 140 -7 316 -17 390 -23 74 -7 176 -15 225 -20 50 -4 96 -5 103 -2 14 5 16
38 3 46 -12 8 -165 23 -404 40 -109 8 -201 17 -204 19 -3 3 7 36 23 74 22 55
28 89 32 173 4 94 2 113 -22 185 -49 145 -136 251 -266 323 -120 67 -292 81
-429 37z"/>
<path d="M1881 1494 c-36 -30 -38 -44 -10 -69 19 -19 21 -19 55 0 38 20 53 57
34 80 -18 22 -44 18 -79 -11z"/>
<path d="M515 1466 c-20 -30 -13 -45 30 -73 39 -26 56 -28 73 -11 23 23 13 56
-25 83 -47 31 -58 31 -78 1z"/>
<path d="M435 820 c-110 -11 -206 -19 -212 -19 -18 -1 -16 -48 1 -54 13 -5 60
-2 319 23 56 5 109 9 118 10 9 0 20 7 23 16 8 20 -11 44 -33 43 -9 -1 -106 -9
-216 -19z"/>
</g>
</svg>
